<svg xmlns="http://www.w3.org/2000/svg"><symbol viewBox="0 0 500 500" id="icon-email"><title>email</title><path d="M1 387c0 27 23 50 50 50h398c28 0 50-23 50-50V138L300 286c-28 17-70 18-99 0L1 138v249zm228-158c10 5 33 6 42 0 98-71 117-86 209-155-7-6-19-11-31-11H51c-12 0-23 5-31 12l209 154z"/></symbol><symbol viewBox="0 0 500 500" id="icon-facebook"><title>facebook</title><path d="M471 1H29C13 1 1 13 1 29v442c0 16 12 28 28 28h238V306h-65v-75h65v-55c0-65 39-100 97-100 27 0 51 2 58 3v67h-40c-31 0-37 15-37 37v48h74l-10 75h-64v193h126c16 0 28-12 28-28V29c0-16-12-28-28-28z"/></symbol><symbol viewBox="0 0 500 500" id="icon-googleplus"><title>googleplus</title><path d="M333 2H186C88 2 35 47 35 127c0 65 60 109 131 99-17 33 2 57 14 69C82 295 2 338 2 401c0 56 47 97 142 97 102 0 175-56 175-124 0-23-8-43-26-64-32-36-71-46-71-72 0-23 22-34 40-49 27-24 36-54 34-83-3-41-27-65-44-78l37 1 44-27zm-70 364c26 36 7 104-86 104-52 0-117-21-117-81 0-70 103-75 141-75 23 17 46 30 62 52zm-64-162c-45 18-82-10-99-68-15-48-4-94 29-106 44-15 79 10 99 63 21 60 7 95-29 111zm240 10v-59h-35v59h-59v36h59v59h35v-59h60v-36h-60z"/></symbol><symbol viewBox="0 0 500 500" id="icon-pinterest"><title>pinterest</title><path d="M250.4 1.2a248.6 248.6 0 0 0-99.8 476.3 218 218 0 0 1 4.3-57L187 285s-8-16-8-39.4c0-36.8 21.4-64.3 48-64.3 22.7 0 33.6 17 33.6 37.3 0 22.7-14.5 56.7-22 88.2-6.2 26.4 13.2 47.9 39.3 47.9 47 0 78.8-60.5 78.8-132.2 0-54.5-36.7-95.3-103.5-95.3-75.4 0-122.4 56.3-122.4 119.1 0 21.7 6.4 37 16.4 48.8 4.6 5.4 5.3 7.6 3.6 13.8l-5 20c-1.7 6.3-6.8 8.5-12.5 6.2-34.7-14.2-51-52.2-51-95 0-70.6 59.6-155.3 177.8-155.3 94.9 0 157.4 68.7 157.4 142.4 0 97.6-54.3 170.4-134.2 170.4-26.8 0-52-14.5-60.7-31 0 0-14.5 57.3-17.5 68.4a208.6 208.6 0 0 1-25 53.2 248.8 248.8 0 0 0 319-238.4A248.6 248.6 0 0 0 250.4 1.2z"/></symbol><symbol viewBox="0 0 500 500" id="icon-twitter"><title>twitter</title><path d="M499 96c-19 8-38 14-59 16 21-12 37-32 45-56-20 12-42 20-65 25a102 102 0 0 0-174 93c-84-5-160-45-210-107a101 101 0 0 0 32 136c-17 0-33-5-47-12v1c0 49 36 90 82 100a102 102 0 0 1-46 2c13 40 51 70 95 70A205 205 0 0 1 1 407c46 29 99 45 157 45a288 288 0 0 0 290-303c20-14 37-32 51-53z"/></symbol><symbol viewBox="0 0 500 500" id="icon-whatsapp"><title>whatsapp</title><path d="M255 1A243 243 0 0 0 46 368L2 498l135-43a245 245 0 0 0 362-212C499 109 389 1 255 1zm0 444c-42 0-80-13-112-34l-78 25 25-75c-24-33-39-74-39-118 0-111 92-201 204-201s203 90 203 201-91 202-203 202zm114-147l-42-22c-5-2-10-3-14 3s-17 19-21 23c-3 4-7 5-13 1-6-3-26-10-49-32-18-17-30-38-33-44-4-6 0-10 3-13l10-10 6-10c3-4 2-8 0-11l-17-47c-5-12-10-10-14-10l-12-1c-4-1-11 1-17 7s-22 20-23 50c-1 31 20 61 23 65 3 5 40 70 103 98 62 27 62 18 74 18 11-1 37-14 43-28s6-27 5-29c-2-3-6-5-12-8z"/></symbol></svg>