<svg xmlns="http://www.w3.org/2000/svg"><symbol viewBox="0 0 500 500" id="icon-email"><title>email</title><path d="M1 387c0 27 23 50 50 50h398c28 0 50-23 50-50V138L300 286c-28 17-70 18-99 0L1 138v249zm228-158c10 5 33 6 42 0 98-71 117-86 209-155-7-6-19-11-31-11H51c-12 0-23 5-31 12l209 154z"/></symbol><symbol viewBox="0 0 500 500" id="icon-facebook"><title>facebook</title><path d="M471 1H29C13 1 1 13 1 29v442c0 16 12 28 28 28h238V306h-65v-75h65v-55c0-65 39-100 97-100 27 0 51 2 58 3v67h-40c-31 0-37 15-37 37v48h74l-10 75h-64v193h126c16 0 28-12 28-28V29c0-16-12-28-28-28z"/></symbol><symbol viewBox="0 0 500 500" id="icon-googleplus"><title>googleplus</title><path d="M333 2H186C88 2 35 47 35 127c0 65 60 109 131 99-17 33 2 57 14 69C82 295 2 338 2 401c0 56 47 97 142 97 102 0 175-56 175-124 0-23-8-43-26-64-32-36-71-46-71-72 0-23 22-34 40-49 27-24 36-54 34-83-3-41-27-65-44-78l37 1 44-27zm-70 364c26 36 7 104-86 104-52 0-117-21-117-81 0-70 103-75 141-75 23 17 46 30 62 52zm-64-162c-45 18-82-10-99-68-15-48-4-94 29-106 44-15 79 10 99 63 21 60 7 95-29 111zm240 10v-59h-35v59h-59v36h59v59h35v-59h60v-36h-60z"/></symbol><symbol viewBox="0 0 500.000000 500.000000" id="icon-linkedin"><title>linkedin</title><path d="M820 4981c-206-44-363-132-520-290-118-119-183-218-236-359-69-183-65-72-62-1867L5 845l28-88c61-196 148-338 287-470C469 145 631 59 825 19 911 1 991 0 2500 0s1589 1 1675 19c195 40 362 129 508 270 138 133 224 274 284 468l28 88v3310l-28 88c-60 194-146 335-284 468-146 141-313 230-508 270-86 18-165 19-1680 18-1494 0-1595-1-1675-18zm667-683c70-26 157-108 193-183 21-43 25-64 25-150 0-122-20-171-105-256-72-73-144-102-252-102-66-1-85 4-141 31-223 110-279 388-115 568 107 116 244 149 395 92zm173-2108V1050h-610v2280h610V2190zm1040 955c0-102 4-185 8-185 5 0 13 10 19 23 40 85 166 195 298 258 125 60 218 81 365 82 149 1 228-16 345-73 212-103 334-268 402-540 14-57 17-168 20-862l4-798h-610l-4 643c-3 576-5 648-21 702-56 190-189 311-356 323-202 14-367-105-439-317l-26-76-3-637-3-638h-609v2280h610v-185z" transform="matrix(.1 0 0 -.1 0 500)"/></symbol><symbol viewBox="0 0 500 500" id="icon-pinterest"><title>pinterest</title><path d="M250 1a248 249 0 0 0-100 476 218 218 0 0 1 4-57l33-135s-8-16-8-39c0-37 21-64 48-64 23 0 34 17 34 37 0 23-15 57-22 88-6 26 13 48 39 48 47 0 79-61 79-132 0-55-37-95-104-95-75 0-122 56-122 119 0 22 6 37 16 49 5 5 5 8 4 14l-5 20c-2 6-7 9-13 6-35-14-51-52-51-95 0-71 60-155 178-155 95 0 157 69 157 142 0 98-54 170-134 170-27 0-52-15-61-31 0 0-15 57-18 68a209 209 0 0 1-25 53 249 249 0 0 0 319-238A249 249 0 0 0 250 1z"/></symbol><symbol viewBox="0 0 26.649 26.649" id="icon-telegram"><title>telegram</title><path d="M26.157 1.238A2.3 2.3 0 0 0 24.31.346c-.478 0-.973.133-1.472.395L1.593 11.88c-1.51.793-1.615 1.987-1.59 2.463.024.479.255 1.654 1.839 2.283L4.557 17.7a4.63 4.63 0 0 0 1.711.309c.098 0 .192-.013.289-.018-.037.048-.082.085-.116.135-.506.757-.531 1.783-.073 2.888a.887.887 0 0 0 .021.051c.803 1.779 1.696 3.787 1.804 4.066a1.828 1.828 0 0 0 1.688 1.172c1.146 0 1.486-.552 3.361-3.604.146-.224.471-.744.526-1.406l.601.242 3.008 1.226c.603.246 1.131.463 1.409.578a1.807 1.807 0 0 0 .937.264c1.368 0 1.696-1.185 1.872-1.82.087-.314.207-.749.336-1.229l4.588-16.858c.346-1.273-.079-2.086-.362-2.458zm-14.43 20.501S10.025 24.51 9.88 24.51c-.004 0-.006-.002-.008-.006-.167-.449-1.849-4.176-1.849-4.176-.31-.747-.254-1.387.279-1.387.117 0 .257.031.421.099l1.306.679c.218.149.456.278.718.381l.066.025.123.062c1.009.534 1.33.727.791 1.552zM24.789 3.224l-4.586 16.858c-.259.95-.475 1.727-.479 1.727-.004-.002-.009-.02-.009-.023 0-.006-.748-.312-1.662-.686l-3.01-1.226c-.914-.37-2.413-.969-3.332-1.323l-.152-.061-.562-.292c-.557-.427-.606-1.131-.046-1.728l9.312-9.971c.374-.399.515-.605.434-.605-.064 0-.271.133-.617.404L8.298 15.592c-.514.401-1.295.625-2.029.625-.376 0-.741-.06-1.052-.183l-2.713-1.073c-.917-.363-.952-1.033-.079-1.493L23.672 2.327c.245-.128.46-.188.638-.188.457 0 .665.4.479 1.085z"/></symbol><symbol viewBox="0 0 500 500" id="icon-twitter"><title>twitter</title><path d="M499 96c-19 8-38 14-59 16 21-12 37-32 45-56-20 12-42 20-65 25a102 102 0 0 0-174 93c-84-5-160-45-210-107a101 101 0 0 0 32 136c-17 0-33-5-47-12v1c0 49 36 90 82 100a102 102 0 0 1-46 2c13 40 51 70 95 70A205 205 0 0 1 1 407c46 29 99 45 157 45a288 288 0 0 0 290-303c20-14 37-32 51-53z"/></symbol><symbol viewBox="0 0 500 500" id="icon-whatsapp"><title>whatsapp</title><path d="M255 1A243 243 0 0 0 46 368L2 498l135-43a245 245 0 0 0 362-212C499 109 389 1 255 1zm0 444c-42 0-80-13-112-34l-78 25 25-75c-24-33-39-74-39-118 0-111 92-201 204-201s203 90 203 201-91 202-203 202zm114-147l-42-22c-5-2-10-3-14 3s-17 19-21 23c-3 4-7 5-13 1-6-3-26-10-49-32-18-17-30-38-33-44-4-6 0-10 3-13l10-10 6-10c3-4 2-8 0-11l-17-47c-5-12-10-10-14-10l-12-1c-4-1-11 1-17 7s-22 20-23 50c-1 31 20 61 23 65 3 5 40 70 103 98 62 27 62 18 74 18 11-1 37-14 43-28s6-27 5-29c-2-3-6-5-12-8z"/></symbol></svg>