<?xml version="1.0" encoding="utf-8"?>
<!-- Generator: Adobe Illustrator 16.0.0, SVG Export Plug-In . SVG Version: 6.00 Build 0)  -->
<!DOCTYPE svg PUBLIC "-//W3C//DTD SVG 1.1//EN" "http://www.w3.org/Graphics/SVG/1.1/DTD/svg11.dtd">
<svg version="1.1" id="Layer_1" xmlns="http://www.w3.org/2000/svg" xmlns:xlink="http://www.w3.org/1999/xlink" x="0px" y="0px"
	 width="500px" height="500px" viewBox="0 0 500 500" enable-background="new 0 0 500 500" xml:space="preserve">
<path d="M1.369,386.854c0,27.481,22.258,49.766,49.729,49.766h398.193c27.472,0,49.729-22.283,49.729-49.766V137.985
	c0,0-12.964,10.139-199.146,148.415c-28.297,17.069-69.558,17.459-99.372-0.243C18.573,151.058,1.381,137.997,1.381,137.997
	L1.369,386.854z M229.468,228.907c9.294,5.564,32.148,5.759,41.844,0c97.806-70.979,116.88-85.534,209.169-154.526
	c-7.619-6.743-19.379-11.001-31.189-11.001H51.098c-11.883,0-22.793,4.173-31.347,11.136
	C122.149,149.394,131.274,156.076,229.468,228.907z"/>
</svg>
