<?xml version="1.0" encoding="utf-8"?>
<!-- Generator: Adobe Illustrator 16.0.0, SVG Export Plug-In . SVG Version: 6.00 Build 0)  -->
<!DOCTYPE svg PUBLIC "-//W3C//DTD SVG 1.1//EN" "http://www.w3.org/Graphics/SVG/1.1/DTD/svg11.dtd">
<svg version="1.1" id="Layer_1" xmlns="http://www.w3.org/2000/svg" xmlns:xlink="http://www.w3.org/1999/xlink" x="0px" y="0px"
	 width="500px" height="500px" viewBox="0 0 500 500" enable-background="new 0 0 500 500" xml:space="preserve">
<path id="White_2_" d="M471.379,1.153H28.622c-15.173,0-27.469,12.296-27.469,27.469v442.757c0,15.168,12.296,27.469,27.469,27.469
	h238.365V306.113h-64.858v-75.111h64.858v-55.393c0-64.283,39.262-99.287,96.607-99.287c27.469,0,51.076,2.045,57.957,2.959v67.18
	l-39.771,0.018c-31.188,0-37.227,14.82-37.227,36.567v47.956h74.379l-9.684,75.111h-64.695v192.734h126.826
	c15.168,0,27.469-12.301,27.469-27.469V28.622C498.848,13.449,486.547,1.153,471.379,1.153z"/>
</svg>
