<svg xmlns="http://www.w3.org/2000/svg" width="500" height="500" viewBox="0 0 500 500">
	<path d="M333 2H186C88 2 35 47 35 127c0 65 60 109 131 99-17 33 2 57 14 69C82 295 2 338 2 401c0 56 47 97 142 97 102 0 175-56 175-124 0-23-8-43-26-64-32-36-71-46-71-72 0-23 22-34 40-49 27-24 36-54 34-83-3-41-27-65-44-78l37 1 44-27zm-70 364c26 36 7 104-86 104-52 0-117-21-117-81 0-70 103-75 141-75 23 17 46 30 62 52zm-64-162c-45 18-82-10-99-68-15-48-4-94 29-106 44-15 79 10 99 63 21 60 7 95-29 111zm240 10v-59h-35v59h-59v36h59v59h35v-59h60v-36h-60z"/>
</svg>