<?xml version="1.0" encoding="utf-8"?>
<!-- Generator: Adobe Illustrator 16.0.0, SVG Export Plug-In . SVG Version: 6.00 Build 0)  -->
<!DOCTYPE svg PUBLIC "-//W3C//DTD SVG 1.0//EN" "http://www.w3.org/TR/2001/REC-SVG-20010904/DTD/svg10.dtd">
<svg version="1.0" id="Layer_1" xmlns="http://www.w3.org/2000/svg" xmlns:xlink="http://www.w3.org/1999/xlink" x="0px" y="0px"
	 width="500px" height="500px" viewBox="0 0 500 500" enable-background="new 0 0 500 500" xml:space="preserve">
<g>
	<g>
		<path fill-rule="evenodd" clip-rule="evenodd" d="M332.72,1.512c0,0-92.706,0-146.848,0c-97.906,0-150.835,45.908-150.835,125.266
			c0,65.242,60.163,109.498,131.258,99.056c-17.323,33.057,1.329,57.072,13.394,69.564c-97.456,0-178.004,42.251-178.004,105.626
			c0,55.68,47.381,97.248,141.948,97.248c102.436,0,174.965-55.934,174.965-123.885c0-23.46-7.442-43.73-25.771-64.509
			c-31.965-36.229-70.957-46.018-70.957-71.558c0-23.24,22.223-34.421,39.962-49.687c27.123-23.333,35.952-53.148,33.884-82.732
			c-2.866-41.055-27.077-65.086-44.215-77.7c15.254,0.029,37.547,0.364,37.547,0.364L332.72,1.512z M263.115,366.471
			c26.291,35.768,6.876,103.269-86.362,103.269c-52.189,0-116.27-21.067-116.27-80.906c0-70.286,102.021-75.117,140.226-75.117
			C223.73,330.565,246.578,343.971,263.115,366.471z M199.138,204.467c-45.116,18.017-81.727-10.47-99.57-68.952
			c-14.48-47.405-3.872-93.318,29.746-105.112c43.718-15.33,79.012,9.32,98.334,62.959
			C249.108,152.908,234.605,188.369,199.138,204.467z M439.259,214.163v-59.1h-35.421v59.1h-59.204v35.369h59.204v59.608h35.421
			v-59.608h59.446v-35.369H439.259z"/>
	</g>
</g>
</svg>
