<?xml version="1.0" standalone="no"?>
<!DOCTYPE svg PUBLIC "-//W3C//DTD SVG 20010904//EN"
 "http://www.w3.org/TR/2001/REC-SVG-20010904/DTD/svg10.dtd">
<svg version="1.0" xmlns="http://www.w3.org/2000/svg"
 width="500.000000pt" height="500.000000pt" viewBox="0 0 500.000000 500.000000"
 preserveAspectRatio="xMidYMid meet">
<metadata>
Created by potrace 1.15, written by Peter Selinger 2001-2017
</metadata>
<g transform="translate(0.000000,500.000000) scale(0.100000,-0.100000)"
fill="#000000" stroke="none">
<path d="M820 4981 c-206 -44 -363 -132 -520 -290 -118 -119 -183 -218 -236
-359 -69 -183 -65 -72 -62 -1867 l3 -1620 28 -88 c61 -196 148 -338 287 -470
149 -142 311 -228 505 -268 86 -18 166 -19 1675 -19 1509 0 1589 1 1675 19
195 40 362 129 508 270 138 133 224 274 284 468 l28 88 0 1655 0 1655 -28 88
c-60 194 -146 335 -284 468 -146 141 -313 230 -508 270 -86 18 -165 19 -1680
18 -1494 0 -1595 -1 -1675 -18z m667 -683 c70 -26 157 -108 193 -183 21 -43
25 -64 25 -150 0 -122 -20 -171 -105 -256 -72 -73 -144 -102 -252 -102 -66 -1
-85 4 -141 31 -223 110 -279 388 -115 568 107 116 244 149 395 92z m173 -2108
l0 -1140 -305 0 -305 0 0 1140 0 1140 305 0 305 0 0 -1140z m1040 955 c0 -102
4 -185 8 -185 5 0 13 10 19 23 40 85 166 195 298 258 125 60 218 81 365 82
149 1 228 -16 345 -73 212 -103 334 -268 402 -540 14 -57 17 -168 20 -862 l4
-798 -305 0 -305 0 -4 643 c-3 576 -5 648 -21 702 -56 190 -189 311 -356 323
-202 14 -367 -105 -439 -317 l-26 -76 -3 -637 -3 -638 -305 0 -304 0 0 1140 0
1140 305 0 305 0 0 -185z"/>
</g>
</svg>
