<svg xmlns="http://www.w3.org/2000/svg" width="500" height="500" viewBox="0 0 500 500">
	<path d="M250 1a248 249 0 0 0-100 476 218 218 0 0 1 4-57L187 285s-8-16-8-39c0-37 21-64 48-64 23 0 34 17 34 37 0 23-15 57-22 88-6 26 13 48 39 48 47 0 79-61 79-132 0-55-37-95-104-95-75 0-122 56-122 119 0 22 6 37 16 49 5 5 5 8 4 14l-5 20c-2 6-7 9-13 6-35-14-51-52-51-95 0-71 60-155 178-155 95 0 157 69 157 142 0 98-54 170-134 170-27 0-52-15-61-31 0 0-15 57-18 68a209 209 0 0 1-25 53 249 249 0 0 0 319-238A249 249 0 0 0 250 1z"/>
</svg>