<?xml version="1.0" encoding="utf-8"?>
<!-- Generator: Adobe Illustrator 16.0.0, SVG Export Plug-In . SVG Version: 6.00 Build 0)  -->
<!DOCTYPE svg PUBLIC "-//W3C//DTD SVG 1.0//EN" "http://www.w3.org/TR/2001/REC-SVG-20010904/DTD/svg10.dtd">
<svg version="1.0" id="Layer_1" xmlns="http://www.w3.org/2000/svg" xmlns:xlink="http://www.w3.org/1999/xlink" x="0px" y="0px"
	 width="500px" height="500px" viewBox="0 0 500 500" enable-background="new 0 0 500 500" xml:space="preserve">
<path d="M250.425,1.195C113.12,1.195,1.805,112.499,1.805,249.81c0,101.799,61.205,189.248,148.813,227.705
	c-0.704-17.358-0.133-38.189,4.321-57.078c4.783-20.188,31.999-135.472,31.999-135.472s-7.951-15.878-7.951-39.331
	c0-36.854,21.353-64.367,47.949-64.367c22.615,0,33.541,16.982,33.541,37.328c0,22.73-14.494,56.732-21.96,88.22
	c-6.227,26.379,13.231,47.889,39.246,47.889c47.1,0,78.831-60.501,78.831-132.176c0-54.493-36.696-95.28-103.449-95.28
	c-75.42,0-122.398,56.24-122.398,119.066c0,21.656,6.385,36.927,16.388,48.75c4.601,5.438,5.244,7.623,3.569,13.862
	c-1.189,4.577-3.933,15.587-5.062,19.957c-1.651,6.288-6.761,8.546-12.442,6.215c-34.742-14.178-50.923-52.21-50.923-94.976
	c0-70.619,59.566-155.308,177.692-155.308c94.915,0,157.383,68.683,157.383,142.416c0,97.526-54.213,170.384-134.137,170.384
	c-26.84,0-52.089-14.494-60.744-30.979c0,0-14.433,57.271-17.48,68.343c-5.281,19.167-15.599,38.335-25.031,53.267
	c22.36,6.591,45.983,10.185,70.467,10.185c137.281,0,248.596-111.304,248.596-248.621C499.021,112.499,387.706,1.195,250.425,1.195z
	"/>
</svg>
