<svg xmlns="http://www.w3.org/2000/svg" width="500" height="500" viewBox="0 0 500 500">
	<path d="M250.4 1.2a248.6 248.6 0 0 0-99.8 476.3 218 218 0 0 1 4.3-57L187 285s-8-16-8-39.4c0-36.8 21.4-64.3 48-64.3 22.7 0 33.6 17 33.6 37.3 0 22.7-14.5 56.7-22 88.2-6.2 26.4 13.2 47.9 39.3 47.9 47 0 78.8-60.5 78.8-132.2 0-54.5-36.7-95.3-103.5-95.3-75.4 0-122.4 56.3-122.4 119.1 0 21.7 6.4 37 16.4 48.8 4.6 5.4 5.3 7.6 3.6 13.8l-5 20c-1.7 6.3-6.8 8.5-12.5 6.2-34.7-14.2-51-52.2-51-95 0-70.6 59.6-155.3 177.8-155.3 94.9 0 157.4 68.7 157.4 142.4 0 97.6-54.3 170.4-134.2 170.4-26.8 0-52-14.5-60.7-31 0 0-14.5 57.3-17.5 68.4a208.6 208.6 0 0 1-25 53.2 248.8 248.8 0 0 0 319-238.4A248.6 248.6 0 0 0 250.4 1.2z"/>
</svg>