<svg xmlns="http://www.w3.org/2000/svg" viewBox="0 0 26.649 26.649" width="512" height="512">
  <path d="M26.157 1.238A2.3 2.3 0 0 0 24.31.346c-.478 0-.973.133-1.472.395L1.593 11.88c-1.51.793-1.615 1.987-1.59 2.463.024.479.255 1.654 1.839 2.283L4.557 17.7a4.63 4.63 0 0 0 1.711.309c.098 0 .192-.013.289-.018-.037.048-.082.085-.116.135-.506.757-.531 1.783-.073 2.888a.887.887 0 0 0 .021.051c.803 1.779 1.696 3.787 1.804 4.066a1.828 1.828 0 0 0 1.688 1.172c1.146 0 1.486-.552 3.361-3.604.146-.224.471-.744.526-1.406l.601.242 3.008 1.226c.603.246 1.131.463 1.409.578a1.807 1.807 0 0 0 .937.264c1.368 0 1.696-1.185 1.872-1.82.087-.314.207-.749.336-1.229l4.588-16.858c.346-1.273-.079-2.086-.362-2.458zm-14.43 20.501S10.025 24.51 9.88 24.51c-.004 0-.006-.002-.008-.006-.167-.449-1.849-4.176-1.849-4.176-.31-.747-.254-1.387.279-1.387.117 0 .257.031.421.099l1.306.679c.218.149.456.278.718.381l.066.025.123.062c1.009.534 1.33.727.791 1.552zM24.789 3.224l-4.586 16.858c-.259.95-.475 1.727-.479 1.727-.004-.002-.009-.02-.009-.023 0-.006-.748-.312-1.662-.686l-3.01-1.226c-.914-.37-2.413-.969-3.332-1.323l-.152-.061-.562-.292c-.557-.427-.606-1.131-.046-1.728l9.312-9.971c.374-.399.515-.605.434-.605-.064 0-.271.133-.617.404L8.298 15.592c-.514.401-1.295.625-2.029.625-.376 0-.741-.06-1.052-.183l-2.713-1.073c-.917-.363-.952-1.033-.079-1.493L23.672 2.327c.245-.128.46-.188.638-.188.457 0 .665.4.479 1.085z"/>
</svg>
