<?xml version="1.0" encoding="utf-8"?>
<!-- Generator: Adobe Illustrator 16.0.0, SVG Export Plug-In . SVG Version: 6.00 Build 0)  -->
<!DOCTYPE svg PUBLIC "-//W3C//DTD SVG 1.0//EN" "http://www.w3.org/TR/2001/REC-SVG-20010904/DTD/svg10.dtd">
<svg version="1.0" id="Layer_1" xmlns="http://www.w3.org/2000/svg" xmlns:xlink="http://www.w3.org/1999/xlink" x="0px" y="0px"
	 width="500px" height="500px" viewBox="0 0 500 500" enable-background="new 0 0 500 500" xml:space="preserve">
<path d="M498.717,96.337c-18.296,8.108-37.961,13.593-58.599,16.056c21.062-12.629,37.239-32.599,44.851-56.426
	c-19.713,11.698-41.544,20.185-64.778,24.759c-18.614-19.821-45.126-32.214-74.474-32.214c-56.338,0-102.01,45.666-102.01,101.977
	c0,8.001,0.896,15.78,2.638,23.24C161.55,169.48,86.376,128.888,36.063,67.179c-8.784,15.059-13.811,32.585-13.811,51.272
	c0,35.392,18,66.593,45.383,84.883c-16.725-0.527-32.457-5.115-46.219-12.758c-0.007,0.425-0.007,0.857-0.007,1.296
	c0,49.403,35.175,90.608,81.846,99.972c-8.562,2.335-17.574,3.584-26.877,3.584c-6.578,0-12.973-0.642-19.193-1.822
	c12.98,40.52,50.651,69.993,95.292,70.815c-34.913,27.343-78.897,43.656-126.695,43.656c-8.238,0-16.36-0.479-24.334-1.424
	c45.14,28.928,98.772,45.821,156.379,45.821c187.655,0,290.266-155.389,290.266-290.152c0-4.426-0.088-8.818-0.289-13.203
	C467.738,134.744,485.035,116.792,498.717,96.337z"/>
</svg>
