<svg xmlns="http://www.w3.org/2000/svg" width="500" height="500" viewBox="0 0 500 500">
	<path d="M255 1A243 243 0 0 0 46 368L2 498l135-43a245 245 0 0 0 362-212C499 109 389 1 255 1zm0 444c-42 0-80-13-112-34l-78 25 25-75c-24-33-39-74-39-118 0-111 92-201 204-201s203 90 203 201-91 202-203 202zm114-147l-42-22c-5-2-10-3-14 3s-17 19-21 23c-3 4-7 5-13 1-6-3-26-10-49-32-18-17-30-38-33-44-4-6 0-10 3-13l10-10 6-10c3-4 2-8 0-11l-17-47c-5-12-10-10-14-10l-12-1c-4-1-11 1-17 7s-22 20-23 50c-1 31 20 61 23 65 3 5 40 70 103 98 62 27 62 18 74 18 11-1 37-14 43-28s6-27 5-29c-2-3-6-5-12-8z"/>
</svg>