<?xml version="1.0" encoding="utf-8"?>
<!-- Generator: Adobe Illustrator 16.0.0, SVG Export Plug-In . SVG Version: 6.00 Build 0)  -->
<!DOCTYPE svg PUBLIC "-//W3C//DTD SVG 1.0//EN" "http://www.w3.org/TR/2001/REC-SVG-20010904/DTD/svg10.dtd">
<svg version="1.0" id="Layer_1" xmlns="http://www.w3.org/2000/svg" xmlns:xlink="http://www.w3.org/1999/xlink" x="0px" y="0px"
	 width="500px" height="500px" viewBox="0 0 500 500" enable-background="new 0 0 500 500" xml:space="preserve">
<g>
	<g>
		<path fill-rule="evenodd" clip-rule="evenodd" d="M254.551,1C119.792,1,10.542,109.368,10.542,243.056
			c0,45.74,12.796,88.506,35.012,124.986L1.513,497.92l135.095-42.91c34.962,19.171,75.159,30.114,117.942,30.114
			c134.77,0,244.009-108.396,244.009-242.068C498.56,109.368,389.32,1,254.551,1z M254.551,444.563
			c-41.255,0-79.676-12.277-111.759-33.319l-78.06,24.792l25.371-74.828c-24.312-33.23-38.68-74.05-38.68-118.152
			c0-111.108,91.126-201.518,203.128-201.518c112.013,0,203.134,90.409,203.134,201.518
			C457.685,354.171,366.563,444.563,254.551,444.563z M368.958,298.062c-6.117-3.32-36.159-19.408-41.797-21.692
			c-5.637-2.261-9.751-3.441-14.136,2.587c-4.391,6.018-16.855,19.492-20.633,23.474c-3.795,3.993-7.44,4.363-13.562,1.037
			c-6.105-3.314-25.934-10.59-48.928-32.519c-17.892-17.06-29.629-37.765-33.038-44.074c-3.403-6.315-0.022-9.547,3.215-12.493
			c2.901-2.68,6.503-6.994,9.751-10.49c3.243-3.491,4.385-6.017,6.619-10.077c2.228-4.037,1.334-7.688-0.11-10.838
			c-1.445-3.138-12.752-34.008-17.479-46.572c-4.721-12.564-9.983-10.689-13.618-10.821c-3.635-0.144-7.766-0.816-11.924-0.971
			c-4.147-0.149-10.959,1.147-16.899,7.126c-5.94,5.957-22.597,20.308-23.744,50.709c-1.147,30.406,20.06,60.609,23.016,64.845
			c2.962,4.236,40.495,70.14,102.875,97.237c62.385,27.087,62.71,18.836,74.16,18.229c11.45-0.596,37.417-13.579,43.153-27.809
			c5.741-14.229,6.199-26.596,4.737-29.237C379.161,303.081,375.068,301.371,368.958,298.062z"/>
	</g>
</g>
</svg>
